<svg width="4047" height="4618" viewBox="0 0 4047 4618" fill="none" xmlns="http://www.w3.org/2000/svg">
<g filter="url(#filter0_d_141_2834)">
<path d="M3669.22 1757.11C3669.22 2331.55 3203.55 2797.22 2629.11 2797.22C2054.67 2797.22 1589 2331.55 1589 1757.11C1589 1182.67 2054.67 717 2629.11 717C3203.55 717 3669.22 1182.67 3669.22 1757.11Z" fill="#102338"/>
</g>
<circle cx="3726.03" cy="3117.03" r="320.034" fill="#EB483F"/>
<circle cx="664" cy="1054" r="664" fill="#EC7D30"/>
<g filter="url(#filter1_d_141_2834)">
<g filter="url(#filter2_b_141_2834)">
<path d="M2189.91 65.8639C2268.08 29.5905 2360.85 63.549 2397.12 141.712L3925.83 3435.85C3962.11 3514.01 3928.15 3606.78 3849.98 3643.05L1993.41 4504.64C1915.25 4540.91 1822.48 4506.95 1786.2 4428.79L257.492 1134.65C221.218 1056.49 255.177 963.719 333.34 927.446L2189.91 65.8639Z" fill="url(#paint0_linear_141_2834)"/>
<path d="M2391.55 144.298L3920.26 3438.43C3955.11 3513.52 3922.48 3602.64 3847.4 3637.48L1990.83 4499.06C1915.74 4533.91 1826.62 4501.29 1791.78 4426.2L263.063 1132.07C228.218 1056.98 260.84 967.863 335.926 933.018L2192.5 71.4358C2267.58 36.5905 2356.7 69.2121 2391.55 144.298Z" stroke="url(#paint1_linear_141_2834)" stroke-width="12.2854"/>
</g>
<path d="M1215.96 761.413L1104.43 813.169L1097.89 799.076L1191.82 755.486L1168.27 731.879L1181 725.975L1214.93 759.204L1215.96 761.413ZM1168.97 921.911L1157.39 927.285L1123.7 854.686L1133.83 849.984L1191.15 867.55C1198.2 869.709 1204.01 871.206 1208.6 872.041C1213.26 872.904 1217.18 873.181 1220.37 872.873C1223.64 872.593 1226.72 871.781 1229.61 870.437C1233.27 868.74 1236.22 866.447 1238.46 863.556C1240.77 860.693 1242.14 857.401 1242.58 853.682C1243.01 849.962 1242.27 846.045 1240.36 841.932C1238.08 837.005 1235.2 833.34 1231.74 830.934C1228.35 828.556 1224.58 827.344 1220.43 827.298C1216.27 827.251 1211.98 828.254 1207.56 830.304L1201.02 816.211C1207.27 813.312 1213.62 812.032 1220.07 812.37C1226.52 812.709 1232.52 814.863 1238.07 818.832C1243.67 822.778 1248.29 828.686 1251.94 836.558C1255.2 843.567 1256.73 850.137 1256.55 856.269C1256.43 862.377 1254.74 867.788 1251.5 872.503C1248.33 877.245 1243.77 880.995 1237.83 883.753C1234.58 885.261 1231.02 886.234 1227.15 886.673C1223.35 887.138 1219.36 887.172 1215.16 886.774C1210.99 886.427 1206.71 885.726 1202.33 884.671C1197.98 883.668 1193.59 882.463 1189.17 881.056L1143.16 866.301L1168.97 921.911ZM1236.33 933.983L1240.99 944.039C1243.28 948.965 1245.98 952.651 1249.09 955.096C1252.27 957.568 1255.65 958.932 1259.23 959.187C1262.87 959.468 1266.5 958.773 1270.11 957.099C1274.37 955.119 1277.62 952.747 1279.86 949.981C1282.09 947.216 1283.29 944.07 1283.44 940.542C1283.59 937.015 1282.66 933.067 1280.63 928.7C1278.79 924.738 1276.38 921.599 1273.39 919.283C1270.48 916.993 1267.2 915.645 1263.55 915.238C1259.93 914.882 1256.19 915.6 1252.33 917.391L1245.79 903.298C1251.43 900.682 1257.21 899.723 1263.16 900.423C1269.1 901.122 1274.63 903.4 1279.75 907.257C1284.9 911.164 1289.05 916.521 1292.21 923.326C1295.32 930.03 1296.85 936.449 1296.8 942.585C1296.79 948.697 1295.1 954.234 1291.73 959.195C1288.4 964.133 1283.29 968.205 1276.38 971.41C1273.59 972.706 1270.28 973.436 1266.47 973.601C1262.73 973.792 1258.86 973.153 1254.84 971.684C1250.85 970.265 1246.96 967.809 1243.18 964.317C1239.45 960.802 1236.18 956.022 1233.38 949.979L1227.79 937.942L1236.33 933.983ZM1224.75 939.357L1233.2 935.432L1238.79 947.469C1242.06 954.528 1243.94 960.757 1244.41 966.156C1244.87 971.556 1244.33 976.224 1242.76 980.161C1241.21 984.149 1239.01 987.454 1236.16 990.076C1233.37 992.725 1230.33 994.816 1227.03 996.348C1221.85 998.752 1216.84 999.996 1212 1000.08C1207.19 1000.22 1202.65 999.331 1198.37 997.428C1194.11 995.576 1190.29 992.846 1186.88 989.24C1183.48 985.634 1180.61 981.317 1178.28 976.289C1176.04 971.465 1174.62 966.601 1174.01 961.699C1173.42 956.847 1173.67 952.195 1174.75 947.743C1175.89 943.267 1177.93 939.231 1180.89 935.635C1183.91 932.016 1187.87 929.063 1192.8 926.777L1199.34 940.87C1195.48 942.661 1192.49 945.067 1190.38 948.086C1188.28 951.156 1187.15 954.642 1186.99 958.545C1186.9 962.476 1187.86 966.599 1189.86 970.916C1191.86 975.233 1194.32 978.598 1197.23 981.013C1200.22 983.454 1203.62 984.806 1207.45 985.068C1211.29 985.381 1215.53 984.465 1220.15 982.32C1224.77 980.175 1228.11 977.454 1230.16 974.158C1232.26 970.837 1233.19 967.069 1232.97 962.855C1232.81 958.667 1231.63 954.186 1229.41 949.412L1224.75 939.357ZM1277.23 1087.76L1265.65 1093.14L1228.46 1013L1236.76 1009.14L1336.68 1023.14L1342.02 1034.64L1314.05 1032.63L1247.46 1023.62L1277.23 1087.76ZM1343.64 1038.15L1232.73 1089.62L1226.19 1075.53L1337.1 1024.06L1343.64 1038.15ZM1324.87 1149.91L1322.53 1137.29L1380.34 1117.22L1406.75 1174.13L1393.72 1180.17L1372.86 1135.23L1341.14 1145.88C1343.25 1147.37 1345.53 1149.42 1347.99 1152.05C1350.46 1154.73 1352.65 1158.1 1354.53 1162.16C1356.91 1167.29 1358.16 1172.3 1358.26 1177.19C1358.42 1182.05 1357.54 1186.66 1355.61 1191.01C1353.7 1195.41 1350.81 1199.44 1346.95 1203.08C1343.09 1206.73 1338.34 1209.86 1332.7 1212.47C1327.37 1214.95 1322.12 1216.49 1316.97 1217.09C1311.84 1217.74 1306.93 1217.4 1302.23 1216.06C1297.59 1214.69 1293.33 1212.23 1289.45 1208.66C1285.59 1205.14 1282.29 1200.41 1279.53 1194.47C1277.46 1190 1276.1 1185.47 1275.45 1180.9C1274.89 1176.35 1275.14 1171.91 1276.22 1167.58C1277.37 1163.28 1279.39 1159.26 1282.28 1155.51C1285.25 1151.79 1289.2 1148.47 1294.15 1145.56L1300.37 1158.96C1296.49 1161.51 1293.55 1164.35 1291.55 1167.5C1289.56 1170.65 1288.51 1174.04 1288.4 1177.67C1288.37 1181.32 1289.27 1185.13 1291.11 1189.09C1292.67 1192.44 1294.63 1195.14 1297 1197.19C1299.37 1199.24 1302.06 1200.65 1305.07 1201.41C1308.07 1202.17 1311.34 1202.29 1314.86 1201.77C1318.41 1201.3 1322.11 1200.17 1325.97 1198.38C1329.47 1196.75 1332.5 1194.76 1335.05 1192.4C1337.6 1190.05 1339.54 1187.39 1340.88 1184.42C1342.24 1181.5 1342.9 1178.39 1342.84 1175.08C1342.84 1171.75 1342.01 1168.31 1340.36 1164.75C1338.17 1160.03 1335.88 1156.74 1333.48 1154.9C1331.1 1153.1 1328.23 1151.44 1324.87 1149.91ZM1440.7 1246.88L1441.26 1248.1L1429.3 1253.65L1428.74 1252.44C1425.27 1244.97 1421.15 1239.29 1416.38 1235.39C1411.66 1231.47 1406.59 1228.98 1401.16 1227.92C1395.78 1226.84 1390.27 1226.8 1384.63 1227.82C1379.01 1228.88 1373.61 1230.61 1368.43 1233.02L1352.13 1240.58C1347.2 1242.87 1343.11 1245.48 1339.84 1248.42C1336.63 1251.33 1334.19 1254.4 1332.55 1257.63C1330.9 1260.87 1330 1264.06 1329.86 1267.21C1329.74 1270.41 1330.33 1273.41 1331.63 1276.21C1333.14 1279.46 1335.09 1282.07 1337.49 1284.04C1339.94 1285.99 1342.68 1287.31 1345.71 1288C1348.82 1288.72 1352.14 1288.82 1355.66 1288.29C1359.18 1287.77 1362.8 1286.65 1366.51 1284.93C1369.81 1283.39 1372.79 1281.51 1375.46 1279.29C1378.18 1277.04 1380.35 1274.52 1381.96 1271.74C1383.62 1268.93 1384.54 1265.94 1384.74 1262.76C1385 1259.61 1384.34 1256.31 1382.73 1252.86C1380.92 1248.95 1378.26 1245.74 1374.75 1243.23C1371.31 1240.75 1367.54 1239.14 1363.43 1238.39C1359.39 1237.68 1355.5 1238 1351.75 1239.37L1348.36 1231.87C1354.38 1229.94 1359.85 1229.01 1364.75 1229.08C1369.74 1229.17 1374.17 1230.08 1378.05 1231.79C1382.01 1233.54 1385.41 1235.94 1388.25 1239.01C1391.16 1242.1 1393.56 1245.67 1395.45 1249.74C1398.02 1255.27 1399.19 1260.53 1398.97 1265.51C1398.75 1270.49 1397.49 1275.08 1395.19 1279.3C1392.94 1283.49 1389.91 1287.21 1386.11 1290.46C1382.38 1293.73 1378.23 1296.43 1373.66 1298.55C1368.43 1300.98 1363.19 1302.51 1357.93 1303.16C1352.68 1303.81 1347.64 1303.46 1342.82 1302.12C1338.02 1300.83 1333.67 1298.5 1329.76 1295.13C1325.85 1291.76 1322.59 1287.25 1319.97 1281.61C1317.19 1275.62 1315.98 1269.83 1316.35 1264.22C1316.76 1258.6 1318.34 1253.36 1321.09 1248.51C1323.84 1243.65 1327.38 1239.32 1331.73 1235.52C1336.07 1231.71 1340.83 1228.6 1346.01 1226.2L1352.64 1223.13C1360.46 1219.5 1368.5 1216.72 1376.74 1214.81C1384.99 1212.9 1393.06 1212.46 1400.94 1213.49C1408.85 1214.57 1416.21 1217.73 1423.02 1222.96C1429.83 1228.19 1435.72 1236.17 1440.7 1246.88ZM1489.44 1352.31L1481.51 1355.99L1357.2 1357.85L1350.31 1342.99L1470.93 1342.75L1443.07 1282.72L1454.65 1277.35L1489.44 1352.31ZM1448.45 1475.86C1441.69 1479 1435.22 1480.08 1429.04 1479.13C1422.93 1478.2 1417.42 1475.63 1412.51 1471.43C1407.62 1467.28 1403.63 1461.88 1400.54 1455.23C1397.45 1448.57 1395.89 1442.02 1395.86 1435.55C1395.82 1429.09 1397.42 1423.22 1400.65 1417.96C1403.94 1412.67 1408.96 1408.45 1415.71 1405.32C1420.13 1403.27 1424.56 1402.23 1428.99 1402.21C1433.5 1402.22 1437.84 1403.13 1442.02 1404.96C1446.23 1406.84 1450.06 1409.57 1453.51 1413.15C1457.04 1416.76 1460 1421.15 1462.4 1426.33C1465.56 1433.14 1467.06 1439.82 1466.89 1446.38C1466.78 1452.91 1465.14 1458.76 1461.98 1463.93C1458.85 1469.15 1454.34 1473.13 1448.45 1475.86ZM1442.18 1461.55C1446.29 1459.64 1449.51 1457.07 1451.83 1453.83C1454.21 1450.57 1455.54 1446.92 1455.83 1442.9C1456.13 1438.87 1455.3 1434.75 1453.34 1430.54C1451.34 1426.22 1448.71 1422.9 1445.48 1420.58C1442.26 1418.31 1438.65 1417.05 1434.65 1416.81C1430.7 1416.54 1426.67 1417.36 1422.56 1419.27C1418.29 1421.25 1415.02 1423.79 1412.75 1426.88C1410.56 1429.99 1409.38 1433.5 1409.22 1437.41C1409.13 1441.34 1410.09 1445.49 1412.12 1449.85C1414.15 1454.22 1416.68 1457.61 1419.71 1460.03C1422.8 1462.43 1426.23 1463.77 1430.01 1464.05C1433.85 1464.36 1437.91 1463.53 1442.18 1461.55ZM1499.28 1449.13C1493.89 1451.62 1488.38 1452.45 1482.75 1451.61C1477.11 1450.77 1471.9 1448.47 1467.13 1444.69C1462.35 1440.92 1458.52 1435.91 1455.62 1429.67C1452.67 1423.32 1451.29 1417.08 1451.47 1410.95C1451.67 1404.87 1453.28 1399.43 1456.3 1394.63C1459.32 1389.83 1463.53 1386.19 1468.91 1383.69C1475.36 1380.69 1481.49 1379.55 1487.31 1380.24C1493.15 1380.99 1498.4 1383.27 1503.08 1387.09C1507.75 1390.91 1511.55 1395.97 1514.47 1402.26C1517.42 1408.61 1518.84 1414.8 1518.74 1420.84C1518.64 1426.87 1516.97 1432.33 1513.75 1437.22C1510.55 1442.17 1505.73 1446.13 1499.28 1449.13ZM1492.51 1435.14C1496.21 1433.42 1499.13 1431.11 1501.24 1428.22C1503.35 1425.32 1504.57 1422.1 1504.9 1418.55C1505.28 1414.98 1504.61 1411.34 1502.89 1407.64C1501.17 1403.93 1498.87 1401.04 1496 1398.98C1493.21 1396.95 1490.02 1395.8 1486.45 1395.55C1482.9 1395.34 1479.17 1396.15 1475.26 1397.96C1471.45 1399.73 1468.47 1402.04 1466.34 1404.88C1464.22 1407.77 1463.03 1410.98 1462.75 1414.51C1462.47 1418.03 1463.19 1421.65 1464.91 1425.35C1466.63 1429.06 1468.92 1431.92 1471.76 1433.93C1474.63 1436 1477.86 1437.15 1481.43 1437.41C1485.01 1437.66 1488.7 1436.91 1492.51 1435.14ZM1577.69 1540.88L1466.16 1592.63L1459.62 1578.54L1553.55 1534.95L1530 1511.34L1542.72 1505.44L1576.66 1538.67L1577.69 1540.88ZM1530.7 1701.37L1519.12 1706.75L1485.43 1634.15L1495.56 1629.45L1552.87 1647.01C1559.92 1649.17 1565.74 1650.67 1570.33 1651.5C1574.99 1652.37 1578.91 1652.64 1582.1 1652.34C1585.36 1652.06 1588.44 1651.24 1591.34 1649.9C1595 1648.2 1597.94 1645.91 1600.18 1643.02C1602.49 1640.16 1603.87 1636.86 1604.3 1633.14C1604.74 1629.43 1604 1625.51 1602.09 1621.39C1599.8 1616.47 1596.93 1612.8 1593.47 1610.4C1590.08 1608.02 1586.31 1606.81 1582.15 1606.76C1577.99 1606.71 1573.71 1607.72 1569.29 1609.77L1562.75 1595.67C1569 1592.78 1575.34 1591.49 1581.8 1591.83C1588.25 1592.17 1594.25 1594.33 1599.8 1598.29C1605.39 1602.24 1610.02 1608.15 1613.67 1616.02C1616.92 1623.03 1618.46 1629.6 1618.28 1635.73C1618.15 1641.84 1616.47 1647.25 1613.22 1651.97C1610.05 1656.71 1605.5 1660.46 1599.56 1663.22C1596.3 1664.72 1592.74 1665.7 1588.87 1666.14C1585.08 1666.6 1581.08 1666.63 1576.89 1666.24C1572.71 1665.89 1568.44 1665.19 1564.06 1664.13C1559.7 1663.13 1555.32 1661.93 1550.9 1660.52L1504.89 1645.76L1530.7 1701.37ZM1598.05 1713.45L1602.72 1723.5C1605.01 1728.43 1607.7 1732.11 1610.81 1734.56C1614 1737.03 1617.38 1738.4 1620.95 1738.65C1624.6 1738.93 1628.23 1738.24 1631.83 1736.56C1636.1 1734.58 1639.35 1732.21 1641.59 1729.44C1643.82 1726.68 1645.01 1723.53 1645.17 1720.01C1645.32 1716.48 1644.38 1712.53 1642.36 1708.16C1640.52 1704.2 1638.1 1701.06 1635.12 1698.75C1632.2 1696.46 1628.92 1695.11 1625.28 1694.7C1621.66 1694.35 1617.91 1695.06 1614.05 1696.85L1607.51 1682.76C1613.15 1680.14 1618.94 1679.19 1624.88 1679.89C1630.82 1680.59 1636.36 1682.86 1641.48 1686.72C1646.63 1690.63 1650.78 1695.98 1653.94 1702.79C1657.05 1709.49 1658.58 1715.91 1658.52 1722.05C1658.52 1728.16 1656.83 1733.7 1653.45 1738.66C1650.13 1743.6 1645.01 1747.67 1638.1 1750.87C1635.31 1752.17 1632.01 1752.9 1628.2 1753.06C1624.46 1753.26 1620.58 1752.62 1616.57 1751.15C1612.58 1749.73 1608.69 1747.27 1604.91 1743.78C1601.18 1740.26 1597.91 1735.49 1595.11 1729.44L1589.52 1717.41L1598.05 1713.45ZM1586.47 1718.82L1594.93 1714.9L1600.52 1726.93C1603.79 1733.99 1605.66 1740.22 1606.13 1745.62C1606.6 1751.02 1606.05 1755.69 1604.48 1759.62C1602.94 1763.61 1600.74 1766.92 1597.88 1769.54C1595.1 1772.19 1592.06 1774.28 1588.76 1775.81C1583.58 1778.21 1578.57 1779.46 1573.73 1779.54C1568.92 1779.68 1564.37 1778.79 1560.09 1776.89C1555.84 1775.04 1552.01 1772.31 1548.61 1768.7C1545.21 1765.1 1542.34 1760.78 1540.01 1755.75C1537.77 1750.93 1536.34 1746.06 1535.74 1741.16C1535.15 1736.31 1535.4 1731.66 1536.48 1727.21C1537.61 1722.73 1539.66 1718.69 1542.62 1715.1C1545.63 1711.48 1549.6 1708.53 1554.53 1706.24L1561.07 1720.33C1557.21 1722.12 1554.22 1724.53 1552.1 1727.55C1550.01 1730.62 1548.88 1734.11 1548.72 1738.01C1548.63 1741.94 1549.58 1746.06 1551.59 1750.38C1553.59 1754.7 1556.05 1758.06 1558.96 1760.48C1561.94 1762.92 1565.35 1764.27 1569.17 1764.53C1573.02 1764.84 1577.26 1763.93 1581.88 1761.78C1586.5 1759.64 1589.83 1756.92 1591.88 1753.62C1593.98 1750.3 1594.92 1746.53 1594.69 1742.32C1594.54 1738.13 1593.36 1733.65 1591.14 1728.88L1586.47 1718.82ZM1638.96 1867.23L1627.38 1872.6L1590.19 1792.46L1598.49 1788.61L1698.41 1802.6L1703.74 1814.11L1675.77 1812.09L1609.19 1803.08L1638.96 1867.23ZM1705.37 1817.61L1594.45 1869.09L1587.91 1854.99L1698.83 1803.52L1705.37 1817.61ZM1686.59 1929.37L1684.26 1916.76L1742.07 1896.69L1768.47 1953.59L1755.45 1959.64L1734.59 1914.69L1702.87 1925.34C1704.98 1926.83 1707.26 1928.89 1709.71 1931.51C1712.19 1934.19 1714.37 1937.56 1716.26 1941.62C1718.64 1946.75 1719.88 1951.76 1719.99 1956.65C1720.15 1961.51 1719.26 1966.12 1717.33 1970.47C1715.43 1974.88 1712.54 1978.9 1708.68 1982.55C1704.81 1986.19 1700.06 1989.32 1694.42 1991.94C1689.09 1994.41 1683.85 1995.95 1678.7 1996.55C1673.57 1997.2 1668.66 1996.86 1663.96 1995.52C1659.32 1994.16 1655.05 1991.69 1651.18 1988.12C1647.32 1984.6 1644.01 1979.87 1641.26 1973.93C1639.18 1969.46 1637.82 1964.94 1637.18 1960.36C1636.61 1955.81 1636.87 1951.37 1637.95 1947.04C1639.1 1942.74 1641.12 1938.72 1644.01 1934.97C1646.97 1931.25 1650.93 1927.93 1655.87 1925.02L1662.09 1938.43C1658.21 1940.97 1655.27 1943.82 1653.28 1946.96C1651.28 1950.11 1650.23 1953.5 1650.13 1957.13C1650.09 1960.79 1651 1964.59 1652.84 1968.56C1654.39 1971.91 1656.35 1974.61 1658.72 1976.66C1661.09 1978.7 1663.78 1980.11 1666.79 1980.87C1669.8 1981.64 1673.07 1981.76 1676.59 1981.23C1680.13 1980.76 1683.84 1979.63 1687.7 1977.84C1691.2 1976.21 1694.23 1974.22 1696.78 1971.87C1699.32 1969.51 1701.27 1966.85 1702.61 1963.88C1703.97 1960.97 1704.62 1957.85 1704.57 1954.55C1704.57 1951.21 1703.74 1947.77 1702.09 1944.22C1699.9 1939.49 1697.6 1936.21 1695.2 1934.36C1692.82 1932.56 1689.95 1930.9 1686.59 1929.37ZM1802.42 2026.35L1802.99 2027.57L1791.03 2033.12L1790.46 2031.9C1787 2024.43 1782.88 2018.75 1778.11 2014.86C1773.39 2010.94 1768.31 2008.44 1762.88 2007.38C1757.51 2006.3 1752 2006.27 1746.36 2007.28C1740.74 2008.34 1735.34 2010.08 1730.16 2012.48L1713.86 2020.05C1708.93 2022.33 1704.83 2024.94 1701.57 2027.88C1698.35 2030.79 1695.92 2033.86 1694.27 2037.1C1692.63 2040.33 1691.73 2043.52 1691.59 2046.67C1691.47 2049.88 1692.06 2052.88 1693.36 2055.67C1694.86 2058.92 1696.82 2061.53 1699.21 2063.5C1701.66 2065.45 1704.4 2066.77 1707.44 2067.46C1710.55 2068.18 1713.87 2068.28 1717.39 2067.75C1720.91 2067.23 1724.53 2066.11 1728.23 2064.39C1731.53 2062.86 1734.52 2060.98 1737.19 2058.75C1739.91 2056.5 1742.08 2053.98 1743.68 2051.2C1745.34 2048.39 1746.27 2045.4 1746.46 2042.23C1746.73 2039.08 1746.06 2035.78 1744.46 2032.32C1742.65 2028.41 1739.98 2025.2 1736.47 2022.7C1733.04 2020.22 1729.27 2018.6 1725.16 2017.86C1721.12 2017.14 1717.23 2017.46 1713.48 2018.83L1710.09 2011.33C1716.11 2009.4 1721.57 2008.47 1726.48 2008.54C1731.46 2008.64 1735.89 2009.54 1739.78 2011.26C1743.73 2013 1747.13 2015.4 1749.97 2018.47C1752.89 2021.56 1755.29 2025.14 1757.18 2029.2C1759.75 2034.73 1760.92 2039.99 1760.7 2044.97C1760.48 2049.95 1759.22 2054.55 1756.92 2058.76C1754.66 2062.96 1751.64 2066.67 1747.84 2069.92C1744.11 2073.19 1739.96 2075.89 1735.39 2078.01C1730.16 2080.44 1724.91 2081.98 1719.66 2082.62C1714.41 2083.27 1709.37 2082.93 1704.55 2081.58C1699.75 2080.29 1695.4 2077.96 1691.49 2074.59C1687.58 2071.22 1684.32 2066.71 1681.7 2061.08C1678.92 2055.08 1677.71 2049.29 1678.07 2043.69C1678.49 2038.06 1680.07 2032.82 1682.82 2027.97C1685.56 2023.12 1689.11 2018.79 1693.45 2014.98C1697.8 2011.17 1702.56 2008.07 1707.74 2005.66L1714.37 2002.59C1722.19 1998.96 1730.22 1996.19 1738.47 1994.27C1746.72 1992.36 1754.78 1991.92 1762.67 1992.95C1770.58 1994.03 1777.94 1997.19 1784.75 2002.42C1791.56 2007.66 1797.45 2015.63 1802.42 2026.35ZM1851.16 2131.77L1843.24 2135.45L1718.93 2137.31L1712.04 2122.46L1832.66 2122.22L1804.8 2062.19L1816.38 2056.81L1851.16 2131.77ZM1810.17 2255.32C1803.42 2258.46 1796.95 2259.55 1790.77 2258.59C1784.66 2257.66 1779.14 2255.1 1774.23 2250.89C1769.34 2246.74 1765.36 2241.34 1762.27 2234.69C1759.18 2228.04 1757.62 2221.48 1757.58 2215.01C1757.54 2208.55 1759.14 2202.69 1762.38 2197.42C1765.66 2192.13 1770.68 2187.92 1777.44 2184.78C1781.86 2182.73 1786.28 2181.7 1790.72 2181.68C1795.23 2181.68 1799.57 2182.6 1803.75 2184.42C1807.95 2186.3 1811.78 2189.03 1815.23 2192.61C1818.76 2196.22 1821.73 2200.62 1824.13 2205.8C1827.29 2212.6 1828.79 2219.28 1828.62 2225.84C1828.5 2232.38 1826.87 2238.23 1823.71 2243.4C1820.58 2248.61 1816.07 2252.59 1810.17 2255.32ZM1803.9 2241.01C1808.02 2239.1 1811.24 2236.53 1813.56 2233.29C1815.93 2230.03 1817.27 2226.39 1817.56 2222.36C1817.85 2218.34 1817.02 2214.22 1815.07 2210C1813.06 2205.69 1810.44 2202.37 1807.2 2200.04C1803.99 2197.77 1800.38 2196.51 1796.38 2196.27C1792.43 2196 1788.4 2196.83 1784.28 2198.73C1780.02 2200.71 1776.75 2203.25 1774.48 2206.34C1772.28 2209.46 1771.11 2212.97 1770.94 2216.87C1770.85 2220.8 1771.82 2224.95 1773.85 2229.32C1775.87 2233.68 1778.41 2237.08 1781.44 2239.49C1784.53 2241.89 1787.96 2243.23 1791.73 2243.51C1795.58 2243.83 1799.64 2242.99 1803.9 2241.01ZM1861 2228.59C1855.62 2231.09 1850.11 2231.92 1844.47 2231.08C1838.84 2230.23 1833.63 2227.93 1828.86 2224.16C1824.08 2220.39 1820.24 2215.38 1817.35 2209.13C1814.4 2202.78 1813.02 2196.54 1813.19 2190.41C1813.4 2184.33 1815.01 2178.89 1818.03 2174.09C1821.05 2169.3 1825.25 2165.65 1830.63 2163.15C1837.08 2160.16 1843.22 2159.01 1849.03 2159.7C1854.87 2160.45 1860.13 2162.73 1864.8 2166.55C1869.48 2170.37 1873.27 2175.43 1876.2 2181.73C1879.14 2188.07 1880.57 2194.27 1880.46 2200.3C1880.36 2206.33 1878.7 2211.8 1875.48 2216.69C1872.28 2221.63 1867.45 2225.6 1861 2228.59ZM1854.23 2214.6C1857.94 2212.88 1860.85 2210.57 1862.97 2207.68C1865.08 2204.79 1866.3 2201.56 1866.63 2198.02C1867.01 2194.45 1866.34 2190.81 1864.62 2187.1C1862.9 2183.39 1860.6 2180.51 1857.73 2178.44C1854.93 2176.41 1851.75 2175.26 1848.17 2175.01C1844.62 2174.81 1840.89 2175.61 1836.98 2177.43C1833.17 2179.19 1830.2 2181.5 1828.06 2184.34C1825.95 2187.24 1824.75 2190.45 1824.48 2193.97C1824.2 2197.49 1824.92 2201.11 1826.64 2204.82C1828.36 2208.52 1830.64 2211.38 1833.49 2213.4C1836.36 2215.46 1839.58 2216.62 1843.16 2216.87C1846.73 2217.13 1850.42 2216.37 1854.23 2214.6Z" fill="#102338"/>
<path d="M2627.4 3409.83C2625.48 3405.68 2624.82 3401.48 2625.42 3397.23C2626.07 3393 2627.93 3389.04 2631.03 3385.35C2634.15 3381.67 2638.49 3378.54 2644.06 3375.96C2649.62 3373.38 2654.8 3372.1 2659.62 3372.12C2664.44 3372.16 2668.66 3373.33 2672.27 3375.61C2675.88 3377.9 2678.65 3381.11 2680.57 3385.24C2682.05 3388.43 2682.71 3391.25 2682.53 3393.69C2682.4 3396.14 2681.87 3398.23 2680.96 3399.96C2680.06 3401.7 2679.22 3403.13 2678.43 3404.23L2678.71 3404.83L2704.2 3393L2708.85 3403.02L2640.24 3434.86L2635.7 3425.08L2643.71 3421.36L2643.32 3420.52C2641.94 3420.43 2640.29 3420.14 2638.35 3419.65C2636.43 3419.19 2634.48 3418.22 2632.52 3416.74C2630.56 3415.26 2628.85 3412.96 2627.4 3409.83ZM2636.97 3408.08C2638.31 3410.96 2640.2 3413.04 2642.64 3414.32C2645.11 3415.62 2647.95 3416.15 2651.15 3415.91C2654.36 3415.69 2657.78 3414.75 2661.4 3413.07C2664.97 3411.41 2667.86 3409.45 2670.06 3407.17C2672.27 3404.9 2673.65 3402.43 2674.23 3399.74C2674.8 3397.06 2674.41 3394.26 2673.05 3391.33C2671.65 3388.32 2669.71 3386.17 2667.21 3384.88C2664.71 3383.6 2661.88 3383.07 2658.7 3383.3C2655.53 3383.55 2652.25 3384.46 2648.85 3386.03C2645.41 3387.63 2642.56 3389.58 2640.29 3391.88C2638.02 3394.18 2636.54 3396.71 2635.87 3399.47C2635.23 3402.24 2635.59 3405.11 2636.97 3408.08ZM2665.54 3492.1C2663.19 3487.03 2662.24 3482.16 2662.71 3477.49C2663.21 3472.83 2664.98 3468.59 2668.01 3464.77C2671.07 3460.96 2675.27 3457.82 2680.61 3455.34C2685.88 3452.89 2690.98 3451.72 2695.91 3451.82C2700.85 3451.94 2705.28 3453.26 2709.18 3455.76C2713.1 3458.29 2716.16 3461.94 2718.38 3466.72C2719.73 3469.62 2720.55 3472.66 2720.86 3475.83C2721.16 3479 2720.79 3482.15 2719.74 3485.27C2718.69 3488.39 2716.81 3491.33 2714.11 3494.11C2711.43 3496.87 2707.76 3499.34 2703.09 3501.5L2699.54 3503.15L2680.56 3462.25L2688.06 3458.76L2702.49 3489.85C2705.12 3488.63 2707.21 3487.01 2708.74 3484.99C2710.3 3482.97 2711.22 3480.71 2711.5 3478.22C2711.79 3475.75 2711.34 3473.22 2710.14 3470.63C2708.83 3467.81 2707 3465.68 2704.64 3464.22C2702.31 3462.78 2699.78 3462 2697.04 3461.88C2694.33 3461.78 2691.7 3462.33 2689.13 3463.52L2683.26 3466.24C2679.82 3467.84 2677.18 3469.8 2675.33 3472.12C2673.48 3474.47 2672.43 3477.03 2672.18 3479.81C2671.94 3482.58 2672.5 3485.43 2673.86 3488.36C2674.74 3490.25 2675.81 3491.86 2677.08 3493.18C2678.36 3494.48 2679.81 3495.45 2681.44 3496.08C2683.06 3496.71 2684.81 3496.95 2686.7 3496.81L2689.39 3507.08C2686.25 3507.62 2683.17 3507.39 2680.16 3506.4C2677.18 3505.42 2674.43 3503.73 2671.9 3501.32C2669.4 3498.92 2667.28 3495.85 2665.54 3492.1ZM2691.77 3545.89L2760.38 3514.05L2765.03 3524.07L2739.53 3535.9L2739.81 3536.5C2741.15 3536.59 2742.78 3536.85 2744.7 3537.29C2746.61 3537.73 2748.54 3538.68 2750.5 3540.14C2752.47 3541.58 2754.2 3543.9 2755.68 3547.09C2757.61 3551.25 2758.28 3555.44 2757.69 3559.68C2757.11 3563.91 2755.27 3567.87 2752.17 3571.56C2749.09 3575.27 2744.77 3578.42 2739.21 3581C2733.65 3583.58 2728.45 3584.87 2723.61 3584.86C2718.8 3584.84 2714.57 3583.71 2710.92 3581.46C2707.3 3579.21 2704.52 3576.01 2702.59 3571.85C2701.14 3568.73 2700.48 3565.92 2700.61 3563.45C2700.75 3561 2701.26 3558.89 2702.15 3557.12C2703.04 3555.35 2703.89 3553.91 2704.7 3552.8L2704.31 3551.96L2696.31 3555.67L2691.77 3545.89ZM2722.05 3543.77C2718.43 3545.45 2715.51 3547.44 2713.27 3549.76C2711.03 3552.07 2709.6 3554.58 2708.98 3557.28C2708.39 3559.98 2708.76 3562.76 2710.09 3565.64C2711.48 3568.64 2713.44 3570.77 2715.96 3572.04C2718.5 3573.31 2721.38 3573.82 2724.6 3573.57C2727.84 3573.34 2731.17 3572.43 2734.61 3570.84C2738.01 3569.26 2740.82 3567.33 2743.04 3565.05C2745.28 3562.79 2746.71 3560.28 2747.33 3557.53C2747.96 3554.79 2747.57 3551.91 2746.18 3548.9C2744.83 3546 2742.94 3543.89 2740.51 3542.57C2738.09 3541.28 2735.3 3540.74 2732.15 3540.96C2728.99 3541.17 2725.62 3542.11 2722.05 3543.77ZM2728.21 3624.42L2779.67 3600.54L2784.32 3610.56L2732.86 3634.44L2728.21 3624.42ZM2789.96 3601.92C2789.15 3600.18 2789.03 3598.41 2789.62 3596.62C2790.23 3594.84 2791.35 3593.58 2792.98 3592.82C2794.63 3592.05 2796.33 3592.01 2798.06 3592.7C2799.82 3593.4 2801.11 3594.63 2801.92 3596.37C2802.72 3598.11 2802.82 3599.87 2802.21 3601.65C2801.63 3603.44 2800.51 3604.72 2798.86 3605.48C2797.23 3606.24 2795.53 3606.27 2793.77 3605.57C2792.03 3604.88 2790.76 3603.66 2789.96 3601.92ZM2811.13 3668.34L2803.09 3672.07L2790.05 3643.96L2798.09 3640.23L2811.13 3668.34ZM2813.91 3642.05L2818.56 3652.07L2769.89 3674.65C2767.94 3675.56 2766.61 3676.53 2765.9 3677.56C2765.21 3678.59 2764.9 3679.64 2764.97 3680.72C2765.07 3681.82 2765.37 3682.91 2765.88 3684.01C2766.25 3684.81 2766.63 3685.49 2767.03 3686.04C2767.42 3686.59 2767.72 3687.02 2767.95 3687.32L2760.51 3692.97C2760.02 3692.49 2759.41 3691.77 2758.69 3690.8C2757.95 3689.84 2757.19 3688.57 2756.42 3686.97C2755.16 3684.35 2754.48 3681.68 2754.41 3678.95C2754.34 3676.21 2755 3673.66 2756.4 3671.3C2757.8 3668.94 2760.06 3667.04 2763.16 3665.6L2813.91 3642.05Z" fill="#102338"/>
<path d="M585.647 1034.57L575.787 1013.33L584.658 1009.07L593.61 1028.36C595.088 1031.55 596.917 1034.08 599.097 1035.96C601.276 1037.84 603.666 1038.97 606.268 1039.35C608.926 1039.75 611.656 1039.3 614.458 1038C617.529 1036.57 619.748 1034.82 621.115 1032.74C622.539 1030.68 623.131 1028.24 622.891 1025.41C622.708 1022.6 621.761 1019.35 620.051 1015.67L612.462 999.316L537.724 1034L532.567 1022.89L616.403 983.982L629.149 1011.45C631.144 1015.75 632.484 1019.79 633.169 1023.58C633.892 1027.35 633.875 1030.83 633.119 1034.03C632.42 1037.24 630.954 1040.12 628.722 1042.65C626.49 1045.18 623.416 1047.35 619.5 1049.17C616.046 1050.77 612.507 1051.34 608.886 1050.87C605.303 1050.39 601.898 1048.98 598.671 1046.65C595.462 1044.36 592.638 1041.24 590.197 1037.29L585.647 1034.57ZM546.195 1052.25L534.545 1027.15L546.497 1029.23L555.235 1048.06C556.874 1051.59 558.877 1054.3 561.246 1056.19C563.632 1058.11 566.241 1059.21 569.073 1059.48C571.944 1059.73 574.915 1059.15 577.985 1057.72C581.095 1056.28 583.523 1054.48 585.272 1052.31C587.02 1050.15 587.956 1047.59 588.08 1044.64C588.204 1041.69 587.393 1038.34 585.647 1034.57L578.299 1018.74L587.277 1014.71L597.324 1036.36L595.195 1040.22C596.72 1044.41 597.154 1048.36 596.497 1052.07C595.878 1055.77 594.41 1059.04 592.093 1061.88C589.793 1064.77 586.839 1067.05 583.231 1068.73C578.01 1071.15 573.062 1072.05 568.385 1071.42C563.764 1070.81 559.551 1068.87 555.746 1065.6C551.979 1062.3 548.796 1057.86 546.195 1052.25ZM657.474 1091.94L568.186 1099.64L562.922 1088.3L661.588 1081.35L664.982 1088.66L657.474 1091.94ZM591.861 1150.66L655.363 1087.39L662.71 1083.77L666.104 1091.08L597.152 1162.06L591.861 1150.66ZM622.228 1134.81L613.131 1139.04L591.273 1091.94L600.371 1087.71L622.228 1134.81ZM644.287 1208.13C646.245 1207.22 647.83 1206.12 649.042 1204.81C650.31 1203.52 651.211 1201.84 651.744 1199.77C652.296 1197.75 652.522 1195.17 652.424 1192.04C652.344 1188.95 651.962 1185.16 651.279 1180.68C650.583 1175.96 650.209 1171.58 650.157 1167.55C650.142 1163.5 650.562 1159.83 651.415 1156.54C652.268 1153.25 653.667 1150.39 655.613 1147.94C657.559 1145.5 660.163 1143.52 663.426 1142.01C666.689 1140.49 670.014 1139.77 673.401 1139.83C676.788 1139.89 680.078 1140.69 683.271 1142.25C686.519 1143.82 689.53 1146.08 692.302 1149.04C695.075 1152 697.459 1155.63 699.454 1159.93C702.376 1166.22 703.643 1172.12 703.255 1177.62C702.924 1183.14 701.354 1187.95 698.546 1192.05C695.776 1196.14 692.203 1199.19 687.827 1201.22L682.697 1190.17C685.844 1188.71 688.316 1186.74 690.11 1184.28C691.944 1181.79 692.919 1178.87 693.036 1175.5C693.191 1172.12 692.298 1168.33 690.357 1164.15C688.522 1160.2 686.413 1157.21 684.029 1155.19C681.646 1153.17 679.143 1152 676.52 1151.68C673.916 1151.39 671.308 1151.86 668.698 1153.07C666.932 1153.89 665.489 1155 664.369 1156.41C663.305 1157.83 662.524 1159.62 662.026 1161.76C661.546 1163.94 661.358 1166.5 661.461 1169.44C661.583 1172.42 661.965 1175.86 662.609 1179.76C663.474 1185.14 663.883 1189.94 663.836 1194.16C663.789 1198.38 663.245 1202.09 662.206 1205.28C661.222 1208.49 659.675 1211.23 657.563 1213.52C655.508 1215.83 652.849 1217.74 649.586 1219.25C646.17 1220.84 642.759 1221.58 639.354 1221.48C635.949 1221.38 632.67 1220.5 629.519 1218.84C626.368 1217.17 623.418 1214.79 620.668 1211.68C617.975 1208.59 615.604 1204.84 613.556 1200.42C611.757 1196.54 610.522 1192.48 609.851 1188.21C609.197 1183.99 609.233 1179.85 609.958 1175.78C610.7 1171.75 612.217 1168.08 614.51 1164.78C616.859 1161.5 620.125 1158.88 624.309 1156.94L629.44 1168C626.561 1169.33 624.343 1171.04 622.787 1173.11C621.269 1175.17 620.284 1177.47 619.831 1180.01C619.396 1182.6 619.422 1185.27 619.91 1188.02C620.453 1190.81 621.349 1193.54 622.596 1196.23C624.395 1200.1 626.455 1203.14 628.777 1205.32C631.099 1207.51 633.579 1208.83 636.216 1209.29C638.871 1209.78 641.562 1209.4 644.287 1208.13ZM724.222 1216.31L640.386 1255.22L635.229 1244.11L719.065 1205.2L724.222 1216.31ZM682.4 1322.08L673.36 1326.27L653.907 1284.36L662.947 1280.16L682.4 1322.08ZM738.758 1247.64L654.922 1286.54L649.765 1275.43L733.601 1236.53L738.758 1247.64ZM713.022 1388.06L703.982 1392.26L683.38 1347.87L692.42 1343.67L713.022 1388.06ZM768.258 1311.21L684.422 1350.11L679.265 1339L763.101 1300.09L768.258 1311.21ZM749.047 1364.21L740.007 1368.4L722.131 1329.88L731.171 1325.69L749.047 1364.21ZM787.55 1352.78L778.453 1357L758.118 1313.18L767.216 1308.96L787.55 1352.78ZM777.022 1446.96L767.162 1425.71L776.034 1421.45L784.985 1440.74C786.464 1443.93 788.293 1446.46 790.472 1448.34C792.651 1450.23 795.042 1451.36 797.644 1451.73C800.302 1452.13 803.032 1451.68 805.834 1450.38C808.905 1448.96 811.124 1447.2 812.491 1445.12C813.914 1443.06 814.506 1440.62 814.267 1437.79C814.083 1434.98 813.137 1431.74 811.427 1428.05L803.838 1411.7L729.1 1446.38L723.943 1435.27L807.778 1396.37L820.524 1423.83C822.519 1428.13 823.859 1432.17 824.544 1435.96C825.267 1439.73 825.251 1443.21 824.495 1446.41C823.795 1449.63 822.329 1452.5 820.097 1455.03C817.865 1457.56 814.791 1459.73 810.876 1461.55C807.421 1463.15 803.883 1463.72 800.261 1463.26C796.678 1462.77 793.273 1461.37 790.047 1459.04C786.838 1456.75 784.013 1453.63 781.572 1449.68L777.022 1446.96ZM737.57 1464.64L725.92 1439.53L737.873 1441.61L746.61 1460.44C748.249 1463.97 750.253 1466.68 752.621 1468.57C755.008 1470.49 757.617 1471.59 760.449 1471.86C763.319 1472.12 766.29 1471.53 769.361 1470.11C772.47 1468.66 774.899 1466.86 776.647 1464.7C778.395 1462.53 779.331 1459.98 779.455 1457.03C779.579 1454.08 778.768 1450.72 777.022 1446.96L769.674 1431.12L778.652 1427.1L788.699 1448.75L786.571 1452.6C788.096 1456.79 788.529 1460.75 787.872 1464.46C787.253 1468.15 785.785 1471.42 783.468 1474.27C781.169 1477.15 778.215 1479.44 774.606 1481.11C769.386 1483.53 764.437 1484.43 759.76 1483.8C755.139 1483.19 750.926 1481.25 747.121 1477.98C743.355 1474.69 740.171 1470.24 737.57 1464.64ZM832.559 1552.61L827.262 1555.07C820.967 1557.99 814.959 1559.82 809.238 1560.56C803.517 1561.3 798.225 1561.01 793.36 1559.67C788.495 1558.34 784.179 1556.02 780.413 1552.73C776.664 1549.48 773.605 1545.3 771.236 1540.2C768.938 1535.25 767.748 1530.27 767.667 1525.27C767.604 1520.31 768.615 1515.5 770.701 1510.84C772.804 1506.23 775.968 1501.94 780.192 1497.97C784.417 1494.01 789.676 1490.56 795.972 1487.64L801.269 1485.18C807.564 1482.26 813.562 1480.46 819.262 1479.77C825.018 1479.11 830.338 1479.46 835.22 1480.83C840.141 1482.19 844.476 1484.49 848.225 1487.74C851.991 1491.03 855.023 1495.16 857.321 1500.11C859.691 1505.21 860.907 1510.25 860.971 1515.21C861.052 1520.21 860.013 1525.01 857.853 1529.6C855.749 1534.22 852.568 1538.47 848.308 1542.36C844.104 1546.27 838.855 1549.69 832.559 1552.61ZM822.158 1544.07L827.571 1541.56C832.561 1539.24 836.735 1536.67 840.092 1533.86C843.468 1531.08 846.007 1528.1 847.708 1524.93C849.41 1521.76 850.274 1518.45 850.299 1514.98C850.342 1511.56 849.535 1508.06 847.878 1504.49C846.275 1501.03 844.152 1498.22 841.508 1496.04C838.882 1493.9 835.8 1492.44 832.264 1491.65C828.745 1490.91 824.817 1490.89 820.479 1491.59C816.142 1492.3 811.478 1493.81 806.488 1496.13L801.075 1498.64C796.047 1500.97 791.843 1503.57 788.465 1506.45C785.125 1509.31 782.594 1512.35 780.872 1515.57C779.206 1518.82 778.342 1522.13 778.281 1525.52C778.238 1528.95 779.018 1532.39 780.622 1535.84C782.296 1539.45 784.455 1542.34 787.099 1544.52C789.743 1546.7 792.816 1548.14 796.317 1548.85C799.874 1549.58 803.803 1549.55 808.105 1548.77C812.445 1547.97 817.13 1546.4 822.158 1544.07ZM882.303 1556.95L859.526 1592.02L901.008 1597.26L907.02 1610.22L853.213 1602.99L823.478 1649.75L817.412 1636.68L840.582 1600.81L798.227 1595.34L792.161 1582.27L847.068 1589.75L876.291 1544L882.303 1556.95ZM920.247 1658.17L830.96 1665.88L825.696 1654.53L924.362 1647.58L927.755 1654.9L920.247 1658.17ZM854.635 1716.89L918.136 1653.62L925.484 1650L928.878 1657.32L859.926 1728.29L854.635 1716.89ZM885.002 1701.05L875.905 1705.27L854.047 1658.17L863.144 1653.95L885.002 1701.05Z" fill="#102338"/>
<path d="M864.229 895.093L795.619 926.933L791.764 918.624L851.663 890.827L851.476 890.425L832.581 878.836L841.023 874.918L860.373 886.785L864.229 895.093ZM813.313 965.06L819.343 962.262L854.644 973.404C858.78 974.714 862.32 975.732 865.262 976.457C868.226 977.171 870.85 977.501 873.131 977.446C875.446 977.404 877.653 976.895 879.752 975.921C882.164 974.801 883.983 973.252 885.209 971.272C886.444 969.314 887.081 967.118 887.119 964.685C887.157 962.251 886.601 959.795 885.45 957.316C884.227 954.681 882.613 952.634 880.606 951.177C878.632 949.731 876.425 948.923 873.985 948.753C871.554 948.605 869.033 949.137 866.42 950.35L862.751 942.444C866.771 940.578 870.73 939.867 874.627 940.312C878.525 940.756 882.064 942.181 885.243 944.587C888.433 947.015 890.956 950.228 892.811 954.226C894.676 958.246 895.481 962.202 895.224 966.094C894.967 969.986 893.808 973.483 891.746 976.584C889.683 979.686 886.888 982.055 883.359 983.693C880.835 984.864 878.155 985.552 875.318 985.755C872.514 985.971 869.119 985.646 865.135 984.781C861.183 983.928 856.184 982.515 850.139 980.543L826.505 972.782L825.969 973.03L840.77 1004.92L833.4 1008.34L813.313 965.06ZM931.501 1031.63L839.096 1047.64L835.738 1040.41L928.143 1024.4L931.501 1031.63ZM872.5 1092.6L878.53 1089.8L913.83 1100.94C917.967 1102.25 921.506 1103.27 924.448 1103.99C927.413 1104.71 930.036 1105.04 932.318 1104.98C934.632 1104.94 936.839 1104.43 938.939 1103.46C941.351 1102.34 943.169 1100.79 944.395 1098.81C945.631 1096.85 946.267 1094.66 946.305 1092.22C946.343 1089.79 945.787 1087.33 944.637 1084.85C943.413 1082.22 941.799 1080.17 939.792 1078.71C937.819 1077.27 935.611 1076.46 933.171 1076.29C930.741 1076.14 928.219 1076.67 925.606 1077.89L921.937 1069.98C925.957 1068.12 929.916 1067.4 933.814 1067.85C937.711 1068.29 941.25 1069.72 944.429 1072.12C947.619 1074.55 950.142 1077.77 951.997 1081.76C953.863 1085.78 954.667 1089.74 954.41 1093.63C954.154 1097.52 952.994 1101.02 950.932 1104.12C948.87 1107.22 946.074 1109.59 942.545 1111.23C940.022 1112.4 937.341 1113.09 934.504 1113.29C931.7 1113.51 928.306 1113.18 924.321 1112.32C920.369 1111.46 915.371 1110.05 909.326 1108.08L885.692 1100.32L885.156 1100.57L899.956 1132.46L892.586 1135.88L872.5 1092.6ZM908.539 1170.26L983.483 1172.77L984.019 1172.52L967.602 1137.15L974.972 1133.73L995.369 1177.68L987.597 1181.29L912.581 1178.97L908.539 1170.26Z" fill="#102338"/>
<path d="M920.115 838.209L888.54 869.148L888.715 869.525L932.727 865.387L934.632 869.49L884.512 873.791L882.568 869.604L918.21 834.105L920.115 838.209ZM893.48 893.117L891.576 889.013L941.696 884.712L943.639 888.9L907.997 924.399L906.092 920.295L937.647 889.314L937.511 889.021L893.48 893.117ZM911.287 888.442L921.159 909.715L917.641 911.347L907.769 890.074L911.287 888.442ZM911.408 931.748L954.288 911.848L956.106 915.763L916.742 934.031L926.226 954.466L922.708 956.099L911.408 931.748ZM971.497 948.929L928.616 968.829L926.799 964.914L969.68 945.014L971.497 948.929ZM939.737 992.792L933.907 980.23L976.788 960.33L982.967 973.646C984.865 977.736 985.637 981.628 985.281 985.322C984.932 989.029 983.526 992.396 981.062 995.423C978.599 998.449 975.14 1001 970.688 1003.06C966.193 1005.15 961.964 1006.14 958.001 1006.05C954.059 1005.96 950.526 1004.8 947.404 1002.57C944.287 1000.35 941.732 997.092 939.737 992.792ZM939.241 982.513L943.147 990.93C944.857 994.615 947.015 997.363 949.62 999.174C952.224 1000.98 955.162 1001.89 958.433 1001.88C961.703 1001.87 965.202 1001 968.929 999.272C972.621 997.542 975.519 995.45 977.621 992.999C979.73 990.561 980.946 987.825 981.269 984.792C981.598 981.772 980.956 978.524 979.343 975.048L975.087 965.878L939.241 982.513ZM999.401 1018.27L1002.92 1016.64L1017.35 1047.73L1013.83 1049.36L1007.52 1035.77L968.16 1054.04L966.343 1050.13L1005.71 1031.86L999.401 1018.27ZM978.557 1076.44L1021.44 1056.55L1023.26 1060.46L1003.59 1069.58L1014.89 1093.91L1034.55 1084.79L1036.36 1088.71L993.482 1108.61L991.665 1104.69L1011.37 1095.55L1000.08 1071.22L980.374 1080.36L978.557 1076.44ZM998.758 1119.97L1041.64 1100.08L1048.06 1113.92C1049.47 1116.96 1050.1 1119.75 1049.94 1122.3C1049.81 1124.86 1049.01 1127.11 1047.55 1129.04C1046.11 1130.98 1044.14 1132.53 1041.64 1133.69C1039.14 1134.85 1036.69 1135.35 1034.29 1135.19C1031.9 1135.05 1029.7 1134.2 1027.68 1132.66C1025.66 1131.12 1023.95 1128.85 1022.55 1125.83L1017.08 1114.04L1020.66 1112.38L1026.08 1124.07C1027.12 1126.3 1028.35 1127.98 1029.77 1129.12C1031.21 1130.27 1032.77 1130.89 1034.48 1130.98C1036.19 1131.09 1037.98 1130.71 1039.85 1129.84C1041.72 1128.97 1043.18 1127.84 1044.24 1126.45C1045.3 1125.06 1045.87 1123.44 1045.95 1121.59C1046.03 1119.75 1045.55 1117.7 1044.5 1115.44L1039.94 1105.62L1000.58 1123.89L998.758 1119.97ZM1026.88 1129.9L1012.43 1149.43L1010.33 1144.91L1024.83 1125.49L1026.88 1129.9ZM1072.16 1165.85L1073.98 1169.77L1045.59 1182.94C1042.67 1184.3 1039.74 1184.82 1036.81 1184.53C1033.88 1184.22 1031.19 1183.15 1028.73 1181.33C1026.29 1179.51 1024.32 1176.98 1022.83 1173.76C1021.34 1170.55 1020.69 1167.41 1020.88 1164.36C1021.07 1161.3 1022 1158.55 1023.65 1156.12C1025.31 1153.69 1027.59 1151.8 1030.51 1150.45L1058.9 1137.27L1060.72 1141.19L1032.6 1154.24C1030.32 1155.29 1028.53 1156.74 1027.21 1158.59C1025.91 1160.43 1025.18 1162.51 1025.02 1164.83C1024.86 1167.16 1025.36 1169.56 1026.51 1172.05C1027.67 1174.53 1029.18 1176.47 1031.06 1177.85C1032.94 1179.23 1035 1180.02 1037.24 1180.2C1039.5 1180.39 1041.77 1179.96 1044.04 1178.9L1072.16 1165.85Z" fill="#102338"/>
<path d="M2079.52 3759.11L2151.99 3915.27L1873.67 4044.43L1801.2 3888.27L2079.52 3759.11Z" fill="#FF5F00"/>
<path d="M1624.84 3841.79L1654.34 3828.1C1665.65 3822.85 1669.8 3812.49 1664.28 3800.59C1661.52 3794.64 1656.57 3789.11 1648.1 3787.61C1651.9 3781.64 1652.55 3775.31 1649.1 3767.87C1646.8 3762.92 1643.03 3758.64 1635.78 3757.19L1641.68 3754.45L1636.84 3744.04L1589.64 3765.95L1594.47 3776.36L1620.53 3764.26C1628.89 3760.38 1634.9 3763.02 1638.12 3769.96C1641.34 3776.9 1638.52 3782.42 1630.66 3786.08L1604.59 3798.17L1609.42 3808.58L1635.49 3796.49C1643.84 3792.61 1650.08 3795.73 1653.07 3802.18C1656.29 3809.12 1653.47 3814.64 1645.61 3818.29L1619.55 3830.39L1624.84 3841.79V3841.79ZM1743.59 3974.05L1735.77 3957.2L1750.03 3950.58L1745.2 3940.17L1730.94 3946.79L1726.56 3937.37L1717.22 3941.71L1721.59 3951.12L1699.96 3961.16C1689.14 3966.19 1684.82 3973.61 1690.34 3985.51C1692.41 3989.97 1696.18 3994.24 1699.76 3996.8L1707.23 3989.72C1703.88 3987.66 1701.78 3984.42 1700.63 3981.94C1698.33 3976.98 1700.36 3973.63 1705.28 3971.35L1726.43 3961.54L1734.25 3978.39L1743.59 3974.05V3974.05ZM1785.52 4061.84C1782.76 4055.89 1777.97 4053.29 1772.89 4052.64L1778.79 4049.9L1773.95 4039.49L1726.75 4061.4L1731.58 4071.81L1758.13 4059.48C1766 4055.83 1772.04 4057.25 1775.03 4063.69C1775.95 4065.68 1776.6 4068.38 1777.03 4070.59L1788.25 4069.01C1787.82 4066.79 1786.44 4063.82 1785.52 4061.84L1785.52 4061.84ZM1718.72 3930.77C1719.86 3924.21 1718.12 3916.59 1714.66 3909.15C1709.14 3897.26 1699.56 3892.07 1690.22 3896.4C1682.35 3900.05 1680.69 3908.05 1684.04 3919.15L1685.85 3924.33C1687.4 3930.24 1687.3 3933.9 1684.84 3935.04C1681.4 3936.64 1677.1 3933.82 1673.88 3926.87C1670.66 3919.94 1670.59 3913.34 1671.44 3908.73L1661.27 3907.42C1659.87 3914.7 1661.35 3923.05 1664.8 3930.48C1671.24 3944.37 1681.32 3949.33 1690.17 3945.22C1698.53 3941.35 1699.96 3932.85 1696.84 3922.25L1695.03 3917.06C1693.45 3912.37 1692.82 3908.45 1695.77 3907.08C1699.21 3905.48 1702.79 3908.04 1705.32 3913.49C1708.08 3919.44 1708.39 3926.53 1708.29 3930.19L1718.72 3930.77V3930.77ZM1852.01 4205.1C1849.24 4199.15 1844.45 4196.56 1839.37 4195.9L1845.27 4193.16L1840.44 4182.75L1793.23 4204.66L1798.06 4215.07L1824.62 4202.75C1832.48 4199.1 1838.52 4200.51 1841.51 4206.96C1842.43 4208.94 1843.09 4211.65 1843.52 4213.86L1854.73 4212.27C1854.31 4210.06 1852.93 4207.08 1852.01 4205.1V4205.1ZM1765.77 4083.66C1751.51 4090.27 1745.78 4104.98 1752.91 4120.35C1756.13 4127.29 1759.91 4131.56 1766.14 4134.69L1772.2 4125.86C1767.41 4123.26 1764.1 4119.98 1762.02 4115.52C1758.11 4107.09 1761.25 4098.4 1770.6 4094.07C1779.45 4089.96 1788.11 4093.17 1792.51 4101.37C1794.58 4105.83 1794.95 4110.48 1793.84 4115.82L1804.5 4116.89C1806.13 4110.11 1805.3 4104.47 1802.08 4097.53C1794.95 4082.16 1780.02 4077.04 1765.77 4083.66ZM1810.4 4179.83L1834 4168.87L1829.17 4158.46L1823.27 4161.2C1826.08 4155.68 1826.24 4149.58 1823.25 4143.14C1817.04 4129.75 1801.88 4124.13 1787.62 4130.75C1773.36 4137.37 1767.87 4152.57 1774.08 4165.95C1777.3 4172.89 1782.06 4176.71 1787.86 4177.63L1781.96 4180.37L1786.79 4190.78L1810.4 4179.83V4179.83ZM1792.68 4141.66C1801.04 4137.78 1810.45 4140.04 1814.6 4148.96C1818.51 4157.38 1814.87 4166.3 1806.02 4170.41C1797.66 4174.29 1788.02 4171.53 1784.11 4163.1C1780.46 4153.95 1784.32 4145.53 1792.68 4141.66V4141.66ZM1759.52 4005.82C1753.08 3991.94 1738.65 3986.59 1723.9 3993.43C1709.14 4000.28 1703.91 4014.76 1710.58 4029.13C1713.8 4036.07 1718.99 4042.1 1725.95 4045.5L1731.02 4037.12C1726.23 4034.53 1721.96 4030.48 1719.66 4025.52C1716.67 4019.08 1716.63 4011.27 1724.3 4005.9L1740.64 4041.1L1744.57 4039.27C1760.04 4032.69 1765.74 4019.21 1759.52 4005.82L1759.52 4005.82ZM1750.67 4009.93C1753.66 4016.37 1751.8 4022.66 1744.88 4027.07L1733.38 4002.29C1740.23 4000.31 1747.22 4002.49 1750.67 4009.93ZM1854.79 4275.5L1897.08 4255.88L1892.25 4245.47L1867.67 4256.88C1870.48 4251.35 1870.64 4245.25 1867.65 4238.81C1861.44 4225.43 1846.28 4219.81 1832.02 4226.42C1817.76 4233.04 1812.26 4248.24 1818.48 4261.63C1821.7 4268.57 1826.45 4272.39 1832.26 4273.31L1826.36 4276.04L1831.19 4286.45L1854.79 4275.5V4275.5ZM1837.08 4237.33C1845.44 4233.45 1854.85 4235.71 1859 4244.63C1862.91 4253.06 1859.27 4261.98 1850.42 4266.08C1842.06 4269.96 1832.42 4267.21 1828.51 4258.78C1824.86 4249.63 1828.72 4241.21 1837.08 4237.33V4237.33ZM1675.59 3889.33L1699.19 3878.38L1694.36 3867.97L1688.46 3870.71C1691.27 3865.18 1691.43 3859.09 1688.44 3852.64C1682.23 3839.26 1667.07 3833.64 1652.81 3840.26C1638.55 3846.87 1633.06 3862.08 1639.27 3875.46C1642.49 3882.4 1647.25 3886.22 1653.05 3887.14L1647.15 3889.88L1651.98 3900.29L1675.59 3889.33V3889.33ZM1657.64 3850.67C1666 3846.79 1675.41 3849.05 1679.56 3857.97C1683.47 3866.4 1679.83 3875.31 1670.98 3879.42C1662.63 3883.3 1652.98 3880.54 1649.07 3872.12C1645.42 3862.97 1649.28 3854.55 1657.64 3850.67V3850.67Z" fill="black"/>
<path d="M1944.96 3833.61C2001.51 3807.37 2064.09 3810.86 2115.64 3836.94C2125.21 3795.75 2121.75 3750.97 2102.43 3709.33C2056.65 3610.67 1940.44 3567.6 1842.59 3613.01C1744.73 3658.43 1702.6 3774.98 1748.38 3873.63C1767.71 3915.27 1799.68 3946.82 1837.32 3966.1C1850.19 3910.13 1888.41 3859.85 1944.96 3833.61V3833.61Z" fill="#EB001B"/>
<path d="M2110.59 4190.53C2012.74 4235.94 1896.53 4192.87 1850.75 4094.22C1831.43 4052.58 1827.97 4007.79 1837.55 3966.6C1889.32 3993.18 1951.67 3996.18 2008.22 3969.94C2064.77 3943.69 2102.5 3893.65 2115.87 3837.44C2153.5 3856.72 2185.48 3888.28 2204.8 3929.92C2250.58 4028.57 2207.96 4145.35 2110.6 4190.53L2110.59 4190.53Z" fill="#F79E1B"/>
</g>
<rect x="2202.69" y="222.459" width="115.938" height="13.1476" rx="6.5738" transform="rotate(65.1053 2202.69 222.459)" fill="url(#paint2_linear_141_2834)"/>
<rect x="2179.93" y="233.025" width="132.671" height="13.1476" rx="6.5738" transform="rotate(65.1053 2179.93 233.025)" fill="url(#paint3_linear_141_2834)"/>
<rect x="2157.16" y="243.59" width="133.867" height="13.1476" rx="6.5738" transform="rotate(65.1053 2157.16 243.59)" fill="url(#paint4_linear_141_2834)"/>
<rect x="2134.39" y="254.156" width="107.571" height="13.1476" rx="6.5738" transform="rotate(65.1053 2134.39 254.156)" fill="url(#paint5_linear_141_2834)"/>
<rect x="2111.63" y="264.721" width="149.405" height="13.1476" rx="6.5738" transform="rotate(65.1053 2111.63 264.721)" fill="url(#paint6_linear_141_2834)"/>
<rect x="2088.85" y="275.289" width="158.967" height="13.1476" rx="6.5738" transform="rotate(65.1053 2088.85 275.289)" fill="url(#paint7_linear_141_2834)"/>
<rect x="2066.09" y="285.854" width="151.795" height="13.1476" rx="6.5738" transform="rotate(65.1053 2066.09 285.854)" fill="url(#paint8_linear_141_2834)"/>
<rect x="2043.32" y="296.419" width="129.086" height="13.1476" rx="6.5738" transform="rotate(65.1053 2043.32 296.419)" fill="url(#paint9_linear_141_2834)"/>
<path d="M2209.83 503.934L2191.31 464.022L2215.69 452.449L2230.7 484.804C2233.4 490.622 2236.2 494.973 2239.09 497.858C2242.05 500.709 2245.17 502.322 2248.45 502.698C2251.76 503.144 2255.33 502.478 2259.16 500.7C2263.56 498.659 2266.73 496.196 2268.67 493.313C2270.61 490.43 2271.36 486.935 2270.92 482.827C2270.58 478.758 2269.13 473.956 2266.56 468.421L2258.07 450.115L2131.94 508.644L2114.61 471.287L2269.57 399.373L2295.4 455.036C2299.85 464.615 2302.93 473.577 2304.65 481.921C2306.43 490.232 2306.77 497.837 2305.66 504.733C2304.58 511.701 2301.99 517.82 2297.88 523.09C2293.84 528.327 2288.21 532.624 2280.97 535.983C2274.65 538.914 2268.1 540.315 2261.32 540.187C2254.53 540.059 2247.94 537.644 2241.53 532.943C2235.23 528.28 2229.48 520.553 2224.3 509.763L2209.83 503.934ZM2143.26 533.017L2121.23 485.549L2155.89 484.985L2171.99 519.681C2174.36 524.79 2177.04 528.508 2180.01 530.834C2183.09 533.199 2186.26 534.446 2189.51 534.576C2192.87 534.744 2196.17 534.07 2199.44 532.556C2203.41 530.712 2206.54 528.441 2208.82 525.742C2211.14 523.115 2212.42 520.02 2212.66 516.458C2212.98 512.862 2212.03 508.688 2209.83 503.934L2195.26 472.537L2219.83 461.389L2237.27 498.959L2231.53 512.231C2236.76 522.392 2239.11 531.263 2238.57 538.841C2238.07 546.491 2235.7 552.896 2231.45 558.057C2227.21 563.218 2222.1 567.181 2216.14 569.947C2206 574.656 2196.5 576.391 2187.64 575.153C2178.82 573.986 2170.7 569.864 2163.28 562.788C2155.86 555.712 2149.18 545.789 2143.26 533.017ZM2275.12 644.635L2256.6 604.724L2280.98 593.151L2296 625.506C2298.7 631.324 2301.49 635.675 2304.38 638.559C2307.34 641.41 2310.46 643.024 2313.74 643.399C2317.05 643.846 2320.63 643.18 2324.46 641.402C2328.86 639.36 2332.03 636.898 2333.96 634.015C2335.9 631.132 2336.65 627.636 2336.21 623.529C2335.88 619.459 2334.42 614.657 2331.86 609.123L2323.36 590.817L2197.24 649.346L2179.9 611.989L2334.87 540.075L2360.7 595.738C2365.14 605.317 2368.22 614.278 2369.94 622.623C2371.73 630.934 2372.07 638.538 2370.96 645.435C2369.88 652.403 2367.28 658.522 2363.18 663.792C2359.14 669.028 2353.5 673.326 2346.26 676.685C2339.95 679.615 2333.4 681.017 2326.61 680.889C2319.83 680.761 2313.23 678.346 2306.82 673.645C2300.52 668.981 2294.78 661.254 2289.6 650.464L2275.12 644.635ZM2208.55 673.719L2186.52 626.25L2221.19 625.686L2237.29 660.383C2239.66 665.492 2242.33 669.209 2245.31 671.536C2248.39 673.9 2251.56 675.148 2254.81 675.277C2258.16 675.445 2261.47 674.772 2264.73 673.257C2268.71 671.413 2271.84 669.142 2274.12 666.444C2276.44 663.817 2277.72 660.722 2277.96 657.159C2278.27 653.564 2277.33 649.389 2275.12 644.635L2260.55 613.238L2285.13 602.091L2302.57 639.661L2296.82 652.932C2302.06 663.094 2304.41 671.964 2303.87 679.543C2303.37 687.193 2300.99 693.598 2296.75 698.759C2292.5 703.919 2287.4 707.883 2281.44 710.648C2271.29 715.357 2261.79 717.092 2252.94 715.854C2244.12 714.687 2236 710.566 2228.58 703.49C2221.15 696.414 2214.48 686.49 2208.55 673.719ZM2386.62 846.424L2380.34 849.338C2368.49 854.837 2357.07 858.108 2346.09 859.153C2335.21 860.236 2325.03 859.309 2315.56 856.373C2306.17 853.404 2297.78 848.628 2290.42 842.043C2283.12 835.426 2277.17 827.151 2272.56 817.217C2267.91 807.213 2265.41 797.253 2265.03 787.338C2264.76 777.461 2266.51 767.94 2270.27 758.776C2274.14 749.65 2279.99 741.246 2287.81 733.565C2295.73 725.921 2305.61 719.35 2317.46 713.851L2323.74 710.937C2335.59 705.438 2346.99 702.131 2357.94 701.016C2368.93 699.971 2379.1 700.898 2388.47 703.796C2397.94 706.731 2406.32 711.508 2413.61 718.125C2421.01 724.78 2427.04 733.11 2431.68 743.115C2436.29 753.048 2438.73 762.954 2439 772.831C2439.38 782.746 2437.63 792.266 2433.76 801.393C2429.96 810.486 2424.11 818.89 2416.23 826.604C2408.34 834.318 2398.47 840.925 2386.62 846.424ZM2362.75 811.448L2369.25 808.436C2376.91 804.879 2383.34 801.077 2388.53 797.029C2393.83 793.019 2397.87 788.815 2400.66 784.416C2403.45 780.018 2404.96 775.478 2405.2 770.795C2405.55 766.151 2404.62 761.451 2402.41 756.697C2400.11 751.731 2397.07 747.88 2393.3 745.145C2389.6 742.378 2385.19 740.674 2380.06 740.035C2374.94 739.395 2369.13 739.803 2362.65 741.259C2356.27 742.753 2349.25 745.278 2341.59 748.834L2335.1 751.847C2327.5 755.37 2321.04 759.102 2315.71 763.041C2310.49 767.018 2306.43 771.187 2303.54 775.547C2300.68 779.978 2299.08 784.516 2298.73 789.161C2298.42 793.876 2299.41 798.717 2301.72 803.684C2303.93 808.438 2306.91 812.182 2310.68 814.917C2314.45 817.652 2318.94 819.322 2324.13 819.929C2329.36 820.606 2335.18 820.234 2341.59 818.811C2348.11 817.426 2355.16 814.972 2362.75 811.448ZM2483.98 861.389L2444.22 910.625L2507.49 912.051L2527.25 954.623L2430.35 947.073L2372.83 1027.71L2352.87 984.71L2393.24 934.284L2328.67 932.558L2308.67 889.454L2407.43 897.689L2464.17 818.711L2483.98 861.389ZM2531.43 1048.92L2391.5 1067.94L2372.88 1027.81L2554.26 1012.84L2566.07 1038.28L2531.43 1048.92ZM2423.55 1137.01L2528.36 1042.32L2558.66 1022.31L2570.61 1048.07L2442.22 1177.24L2423.55 1137.01ZM2480.65 1108.7L2451.81 1122.09L2414.91 1042.58L2443.76 1029.2L2480.65 1108.7Z" fill="#102338"/>
<defs>
<filter id="filter0_d_141_2834" x="1566.14" y="717" width="2125.94" height="2125.94" filterUnits="userSpaceOnUse" color-interpolation-filters="sRGB">
<feFlood flood-opacity="0" result="BackgroundImageFix"/>
<feColorMatrix in="SourceAlpha" type="matrix" values="0 0 0 0 0 0 0 0 0 0 0 0 0 0 0 0 0 0 127 0" result="hardAlpha"/>
<feOffset dy="22.8596"/>
<feGaussianBlur stdDeviation="11.4298"/>
<feComposite in2="hardAlpha" operator="out"/>
<feColorMatrix type="matrix" values="0 0 0 0 0 0 0 0 0 0 0 0 0 0 0 0 0 0 0.25 0"/>
<feBlend mode="normal" in2="BackgroundImageFix" result="effect1_dropShadow_141_2834"/>
<feBlend mode="normal" in="SourceGraphic" in2="effect1_dropShadow_141_2834" result="shape"/>
</filter>
<filter id="filter1_d_141_2834" x="193.815" y="51.3291" width="3795.69" height="4566.12" filterUnits="userSpaceOnUse" color-interpolation-filters="sRGB">
<feFlood flood-opacity="0" result="BackgroundImageFix"/>
<feColorMatrix in="SourceAlpha" type="matrix" values="0 0 0 0 0 0 0 0 0 0 0 0 0 0 0 0 0 0 127 0" result="hardAlpha"/>
<feOffset dy="49.1417"/>
<feGaussianBlur stdDeviation="24.5708"/>
<feComposite in2="hardAlpha" operator="out"/>
<feColorMatrix type="matrix" values="0 0 0 0 0 0 0 0 0 0 0 0 0 0 0 0 0 0 0.25 0"/>
<feBlend mode="normal" in2="BackgroundImageFix" result="effect1_dropShadow_141_2834"/>
<feBlend mode="normal" in="SourceGraphic" in2="effect1_dropShadow_141_2834" result="shape"/>
</filter>
<filter id="filter2_b_141_2834" x="-371.314" y="-562.942" width="4925.95" height="5696.38" filterUnits="userSpaceOnUse" color-interpolation-filters="sRGB">
<feFlood flood-opacity="0" result="BackgroundImageFix"/>
<feGaussianBlur in="BackgroundImage" stdDeviation="307.135"/>
<feComposite in2="SourceAlpha" operator="in" result="effect1_backgroundBlur_141_2834"/>
<feBlend mode="normal" in="SourceGraphic" in2="effect1_backgroundBlur_141_2834" result="shape"/>
</filter>
<linearGradient id="paint0_linear_141_2834" x1="2295.89" y1="69.3354" x2="1848.69" y2="4570" gradientUnits="userSpaceOnUse">
<stop stop-color="#C9C9C9" stop-opacity="0.8"/>
<stop offset="1" stop-color="#C4C4C4" stop-opacity="0.1"/>
</linearGradient>
<linearGradient id="paint1_linear_141_2834" x1="2275.79" y1="26.013" x2="1892.01" y2="4549.96" gradientUnits="userSpaceOnUse">
<stop stop-color="white" stop-opacity="0.8"/>
<stop offset="1" stop-color="#D3D3D3" stop-opacity="0.1"/>
</linearGradient>
<linearGradient id="paint2_linear_141_2834" x1="2215.84" y1="232.32" x2="2311.34" y2="223.855" gradientUnits="userSpaceOnUse">
<stop stop-color="#152742"/>
<stop offset="0.586212" stop-color="#EC4242"/>
<stop offset="1" stop-color="#EC7D30"/>
</linearGradient>
<linearGradient id="paint3_linear_141_2834" x1="2194.97" y1="242.886" x2="2303.99" y2="231.828" gradientUnits="userSpaceOnUse">
<stop stop-color="#152742"/>
<stop offset="0.586212" stop-color="#EC4242"/>
<stop offset="1" stop-color="#EC7D30"/>
</linearGradient>
<linearGradient id="paint4_linear_141_2834" x1="2172.34" y1="253.451" x2="2282.32" y2="242.195" gradientUnits="userSpaceOnUse">
<stop stop-color="#152742"/>
<stop offset="0.586212" stop-color="#EC4242"/>
<stop offset="1" stop-color="#EC7D30"/>
</linearGradient>
<linearGradient id="paint5_linear_141_2834" x1="2146.59" y1="264.016" x2="2235.3" y2="256.721" gradientUnits="userSpaceOnUse">
<stop stop-color="#152742"/>
<stop offset="0.586212" stop-color="#EC4242"/>
<stop offset="1" stop-color="#EC7D30"/>
</linearGradient>
<linearGradient id="paint6_linear_141_2834" x1="2128.57" y1="274.582" x2="2251.01" y2="260.597" gradientUnits="userSpaceOnUse">
<stop stop-color="#152742"/>
<stop offset="0.586212" stop-color="#EC4242"/>
<stop offset="1" stop-color="#EC7D30"/>
</linearGradient>
<linearGradient id="paint7_linear_141_2834" x1="2106.88" y1="285.149" x2="2236.93" y2="269.344" gradientUnits="userSpaceOnUse">
<stop stop-color="#152742"/>
<stop offset="0.586212" stop-color="#EC4242"/>
<stop offset="1" stop-color="#EC7D30"/>
</linearGradient>
<linearGradient id="paint8_linear_141_2834" x1="2083.3" y1="295.715" x2="2207.64" y2="281.285" gradientUnits="userSpaceOnUse">
<stop stop-color="#152742"/>
<stop offset="0.586212" stop-color="#EC4242"/>
<stop offset="1" stop-color="#EC7D30"/>
</linearGradient>
<linearGradient id="paint9_linear_141_2834" x1="2057.96" y1="306.28" x2="2164.09" y2="295.806" gradientUnits="userSpaceOnUse">
<stop stop-color="#152742"/>
<stop offset="0.586212" stop-color="#EC4242"/>
<stop offset="1" stop-color="#EC7D30"/>
</linearGradient>
</defs>
</svg>
