<svg width="6099" height="1455" viewBox="0 0 6099 1455" fill="none" xmlns="http://www.w3.org/2000/svg">
<rect y="232.242" width="701.896" height="79.5964" rx="39.7982" fill="url(#paint0_linear_138_2823)"/>
<rect y="384.238" width="803.2" height="79.5964" rx="39.7982" fill="url(#paint1_linear_138_2823)"/>
<rect y="536.154" width="810.436" height="79.5964" rx="39.7982" fill="url(#paint2_linear_138_2823)"/>
<rect y="688.149" width="651.243" height="79.5964" rx="39.7982" fill="url(#paint3_linear_138_2823)"/>
<rect y="840.067" width="904.504" height="79.5964" rx="39.7982" fill="url(#paint4_linear_138_2823)"/>
<rect y="992.042" width="962.393" height="79.5964" rx="39.7982" fill="url(#paint5_linear_138_2823)"/>
<rect y="1143.96" width="918.977" height="79.5964" rx="39.7982" fill="url(#paint6_linear_138_2823)"/>
<rect y="1295.95" width="781.492" height="79.5964" rx="39.7982" fill="url(#paint7_linear_138_2823)"/>
<path d="M1566.99 915.592H1298.97L1297.54 751.208H1514.82C1553.89 751.208 1585.1 746.92 1608.44 738.343C1631.79 729.29 1648.71 716.187 1659.19 699.034C1670.15 681.881 1675.63 660.439 1675.63 634.71C1675.63 605.168 1670.15 581.344 1659.19 563.238C1648.23 545.132 1630.84 532.029 1607.01 523.929C1583.67 515.352 1553.41 511.064 1516.25 511.064H1393.31V1358H1142.45V317.377H1516.25C1580.57 317.377 1637.98 323.333 1688.49 335.244C1739 346.68 1781.88 364.309 1817.14 388.133C1852.88 411.957 1880.03 441.975 1898.62 478.187C1917.2 513.923 1926.49 556.091 1926.49 604.692C1926.49 647.098 1917.44 686.884 1899.33 724.049C1881.23 761.214 1850.97 791.47 1808.56 814.817C1766.63 837.688 1709.22 849.6 1636.32 850.553L1566.99 915.592ZM1556.98 1358H1238.22L1323.99 1165.03H1556.98C1591.29 1165.03 1618.69 1159.79 1639.18 1149.3C1660.14 1138.34 1675.15 1124.05 1684.2 1106.42C1693.73 1088.31 1698.5 1068.3 1698.5 1046.38C1698.5 1019.7 1693.97 996.593 1684.92 977.058C1676.34 957.522 1662.52 942.513 1643.46 932.031C1624.41 921.072 1598.91 915.592 1566.99 915.592H1356.15L1357.58 751.208H1609.87L1668.48 816.962C1738.04 814.103 1793.08 823.871 1833.58 846.265C1874.56 868.659 1903.86 898.201 1921.49 934.889C1939.12 971.578 1947.93 1009.93 1947.93 1049.96C1947.93 1118.09 1933.16 1175.03 1903.62 1220.77C1874.56 1266.52 1830.96 1300.82 1772.83 1323.69C1714.7 1346.56 1642.75 1358 1556.98 1358ZM2511.84 915.592H2243.82L2242.39 751.208H2459.67C2498.74 751.208 2529.95 746.92 2553.3 738.343C2576.64 729.29 2593.56 716.187 2604.04 699.034C2615 681.881 2620.48 660.439 2620.48 634.71C2620.48 605.168 2615 581.344 2604.04 563.238C2593.08 545.132 2575.69 532.029 2551.87 523.929C2528.52 515.352 2498.26 511.064 2461.1 511.064H2338.17V1358H2087.3V317.377H2461.1C2525.42 317.377 2582.84 323.333 2633.34 335.244C2683.85 346.68 2726.73 364.309 2761.99 388.133C2797.73 411.957 2824.89 441.975 2843.47 478.187C2862.05 513.923 2871.34 556.091 2871.34 604.692C2871.34 647.098 2862.29 686.884 2844.18 724.049C2826.08 761.214 2795.82 791.47 2753.42 814.817C2711.49 837.688 2654.07 849.6 2581.17 850.553L2511.84 915.592ZM2501.84 1358H2183.07L2268.84 1165.03H2501.84C2536.14 1165.03 2563.54 1159.79 2584.03 1149.3C2604.99 1138.34 2620 1124.05 2629.05 1106.42C2638.58 1088.31 2643.35 1068.3 2643.35 1046.38C2643.35 1019.7 2638.82 996.593 2629.77 977.058C2621.19 957.522 2607.38 942.513 2588.32 932.031C2569.26 921.072 2543.77 915.592 2511.84 915.592H2301L2302.43 751.208H2554.72L2613.33 816.962C2682.9 814.103 2737.93 823.871 2778.43 846.265C2819.41 868.659 2848.71 898.201 2866.34 934.889C2883.97 971.578 2892.78 1009.93 2892.78 1049.96C2892.78 1118.09 2878.01 1175.03 2848.47 1220.77C2819.41 1266.52 2775.81 1300.82 2717.68 1323.69C2659.55 1346.56 2587.6 1358 2501.84 1358ZM3912.68 816.962V859.13C3912.68 938.701 3901.48 1010.17 3879.09 1073.54C3857.17 1136.44 3825.96 1190.28 3785.46 1235.07C3744.96 1279.38 3697.08 1313.45 3641.8 1337.27C3586.53 1360.62 3525.54 1372.29 3458.84 1372.29C3391.65 1372.29 3330.19 1360.62 3274.44 1337.27C3219.17 1313.45 3171.05 1279.38 3130.07 1235.07C3089.57 1190.28 3058.12 1136.44 3035.73 1073.54C3013.81 1010.17 3002.85 938.701 3002.85 859.13V816.962C3002.85 737.39 3013.81 665.919 3035.73 602.547C3058.12 539.176 3089.33 485.334 3129.35 441.022C3169.85 396.233 3217.74 362.165 3273.01 338.818C3328.76 314.994 3390.23 303.082 3457.41 303.082C3524.11 303.082 3585.1 314.994 3640.37 338.818C3696.12 362.165 3744.25 396.233 3784.75 441.022C3825.25 485.334 3856.69 539.176 3879.09 602.547C3901.48 665.919 3912.68 737.39 3912.68 816.962ZM3658.24 859.13V815.532C3658.24 764.073 3653.72 718.808 3644.66 679.737C3636.09 640.189 3623.22 607.074 3606.07 580.391C3588.92 553.709 3567.71 533.697 3542.46 520.355C3517.68 506.538 3489.33 499.629 3457.41 499.629C3424.05 499.629 3394.99 506.538 3370.21 520.355C3345.44 533.697 3324.71 553.709 3308.03 580.391C3291.36 607.074 3278.73 640.189 3270.15 679.737C3262.05 718.808 3258 764.073 3258 815.532V859.13C3258 910.113 3262.05 955.378 3270.15 994.925C3278.73 1034 3291.36 1067.11 3308.03 1094.27C3325.19 1121.43 3346.15 1141.92 3370.93 1155.74C3396.18 1169.55 3425.48 1176.46 3458.84 1176.46C3490.76 1176.46 3519.11 1169.55 3543.89 1155.74C3568.67 1141.92 3589.39 1121.43 3606.07 1094.27C3623.22 1067.11 3636.09 1034 3644.66 994.925C3653.72 955.378 3658.24 910.113 3658.24 859.13ZM4245.02 317.377L4415.12 663.298L4585.23 317.377H4871.11L4580.94 833.4L4878.97 1358H4590.23L4415.12 1005.65L4240.02 1358H3950.56L4249.31 833.4L3958.42 317.377H4245.02ZM5402.86 536.079L5149.14 1358H4879.69L5262.06 317.377H5432.88L5402.86 536.079ZM5612.99 1358L5358.55 536.079L5325.67 317.377H5498.63L5883.15 1358H5612.99ZM5602.98 969.91V1163.6H5069.09V969.91H5602.98Z" fill="white"/>
<defs>
<linearGradient id="paint0_linear_138_2823" x1="79.5964" y1="291.939" x2="657.759" y2="240.693" gradientUnits="userSpaceOnUse">
<stop stop-color="white"/>
</linearGradient>
<linearGradient id="paint1_linear_138_2823" x1="91.0845" y1="443.935" x2="751.1" y2="376.99" gradientUnits="userSpaceOnUse">
<stop stop-color="white"/>
</linearGradient>
<linearGradient id="paint2_linear_138_2823" x1="91.9051" y1="595.851" x2="757.744" y2="527.707" gradientUnits="userSpaceOnUse">
<stop stop-color="white"/>
</linearGradient>
<linearGradient id="paint3_linear_138_2823" x1="73.8523" y1="747.847" x2="610.874" y2="703.682" gradientUnits="userSpaceOnUse">
<stop stop-color="white"/>
</linearGradient>
<linearGradient id="paint4_linear_138_2823" x1="102.573" y1="899.765" x2="843.81" y2="815.099" gradientUnits="userSpaceOnUse">
<stop stop-color="white"/>
</linearGradient>
<linearGradient id="paint5_linear_138_2823" x1="109.137" y1="1051.74" x2="896.474" y2="956.053" gradientUnits="userSpaceOnUse">
<stop stop-color="white"/>
</linearGradient>
<linearGradient id="paint6_linear_138_2823" x1="104.214" y1="1203.66" x2="856.998" y2="1116.3" gradientUnits="userSpaceOnUse">
<stop stop-color="white"/>
</linearGradient>
<linearGradient id="paint7_linear_138_2823" x1="88.6228" y1="1355.65" x2="731.149" y2="1292.24" gradientUnits="userSpaceOnUse">
<stop stop-color="white"/>
</linearGradient>
</defs>
</svg>
